PathFileType	4	(X/Y/Z)	C:\Users\Basilio\Documents\Thesis Gigler\squatting_fais\c3dfiles\044\SJ_pre5\markers_experimental.trc
DataRate	CameraRate	NumFrames	NumMarkers	Units	OrigDataRate	OrigDataStartFrame	OrigNumFrames
200.000000	200.000000	4	61	mm	200.000000	0	1880
Frame#	Time	FHD			LBHD			RBHD			C7			T10			CLAV			LSHO			LUUPA			LMUPA			LDUPA			LLEP			LMEP			LRAD			LUL			LRFIN			RSHO			RUPA1			RMUPA			RDUPA			RLEP			RMEP			RRAD			RUL			RUFIN			LASI			RASI			USACR			LSACR			RSACR			LTHI1			LTHI2			LTHI3			LTHI4			LLFC			LMFC			LTIB1			LTIB2			LTIB3			LTIB4			LLMAL			LMMAL			LHEE			LMT1			LMT2			LMT5			RTHI			RTHI2			RTHI3			RTHI4			RLFC			RMFC			RTIB1			RTIB2			RTIB3			RTIB4			RLMAL			RMMAL			RHEE			RMT1			RMT2			RMT5			
		X1	Y1	Z1	X2	Y2	Z2	X3	Y3	Z3	X4	Y4	Z4	X5	Y5	Z5	X6	Y6	Z6	X7	Y7	Z7	X8	Y8	Z8	X9	Y9	Z9	X10	Y10	Z10	X11	Y11	Z11	X12	Y12	Z12	X13	Y13	Z13	X14	Y14	Z14	X15	Y15	Z15	X16	Y16	Z16	X17	Y17	Z17	X18	Y18	Z18	X19	Y19	Z19	X20	Y20	Z20	X21	Y21	Z21	X22	Y22	Z22	X23	Y23	Z23	X24	Y24	Z24	X25	Y25	Z25	X26	Y26	Z26	X27	Y27	Z27	X28	Y28	Z28	X29	Y29	Z29	X30	Y30	Z30	X31	Y31	Z31	X32	Y32	Z32	X33	Y33	Z33	X34	Y34	Z34	X35	Y35	Z35	X36	Y36	Z36	X37	Y37	Z37	X38	Y38	Z38	X39	Y39	Z39	X40	Y40	Z40	X41	Y41	Z41	X42	Y42	Z42	X43	Y43	Z43	X44	Y44	Z44	X45	Y45	Z45	X46	Y46	Z46	X47	Y47	Z47	X48	Y48	Z48	X49	Y49	Z49	X50	Y50	Z50	X51	Y51	Z51	X52	Y52	Z52	X53	Y53	Z53	X54	Y54	Z54	X55	Y55	Z55	X56	Y56	Z56	X57	Y57	Z57	X58	Y58	Z58	X59	Y59	Z59	X60	Y60	Z60	X61	Y61	Z61	

1	0	-72.45899963378908	1479.193359375	-877.3785400390627	-194.3501586914063	1456.569458007813	-975.009948730469	-263.8945922851563	1448.853149414063	-824.6286621093752	-314.1879882812501	1325.05517578125	-900.1240844726565	-490.6058349609376	1079.984497070313	-894.1888427734377	-217.0965270996094	1217.454956054688	-896.1104125976565	-229.4757690429688	1268.402465820313	-1075.789916992188	-378.1369628906251	1155.584106445313	-1222.770141601563	-372.6137695312501	1107.34619140625	-1212.789794921875	-419.6704711914064	1108.561767578125	-1252.1328125	-451.2805786132814	1059.296630859375	-1264.476440429688	-511.4183349609376	1091.483276367188	-1215.6943359375	-543.7819824218751	839.6363525390627	-1113.542236328125	-506.8297424316407	809.420593261719	-1164.280029296875	-488.1085510253907	838.9895629882815	-1079.592041015625	-249.7015075683594	1264.006469726563	-707.8613891601564	-382.6722412109376	1142.920043945313	-565.2347412109376	-374.0426025390626	1093.227783203125	-574.2973022460939	-417.3123168945314	1089.578125	-534.5722045898439	-443.1714477539064	1033.79931640625	-522.0111694335939	-514.7487792968751	1060.012451171875	-564.5039062500001	-539.0698852539064	809.6989746093752	-665.1917114257814	-493.347137451172	783.098083496094	-613.5209350585939	-474.9952087402345	815.381286621094	-704.7634277343751	-437.7257080078126	832.774108886719	-1007.280822753906	-436.0825195312501	814.9936523437502	-789.3440551757815	-566.6888427734376	936.194763183594	-885.7149047851565	-589.8504638671876	911.8833618164065	-912.2952270507815	-584.9432373046876	911.7954711914065	-855.8357543945315	-471.1868591308595	671.6987304687501	-1121.967529296875	-395.277313232422	637.8959350585939	-1144.864013671875	-360.3530578613282	666.8543701171876	-1137.009521484375	-381.0810546875001	577.9455566406251	-1146.622924804688	-276.7805480957032	467.5693664550782	-1158.659423828125	-259.7561340332032	455.6290893554689	-1044.070922851563	-296.7613830566407	295.8682861328126	-1086.420776367188	-342.5078735351563	262.9795532226563	-1155.484741210938	-313.6452636718751	250.5122985839844	-1120.716430664063	-357.9185485839844	184.3688354492188	-1087.723266601563	-450.354949951172	93.08914184570314	-1133.869506835938	-427.3133544921876	99.75809478759768	-1048.59619140625	-513.2756958007814	48.70079040527345	-1084.107421875	-296.1181945800782	60.13002395629884	-1075.73291015625	-300.4530639648438	63.8435401916504	-1122.230102539063	-334.8149108886719	38.77735137939454	-1167.825317382813	-430.5038146972657	615.9230957031251	-683.7592773437501	-363.4376220703126	605.5983886718751	-673.3212890625001	-340.5346374511719	628.0236206054689	-679.0342407226564	-326.4475097656251	528.0907592773439	-682.8756103515626	-273.1129150390626	446.8153076171876	-685.9235839843751	-270.6676635742188	441.8008117675782	-803.3452148437502	-266.9835510253907	315.4677734375001	-717.3134765625001	-363.1235046386719	279.6691894531251	-673.1525878906251	-328.0330505371094	256.5068054199219	-691.5972900390626	-341.7216186523438	207.6192932128907	-720.4887084960939	-469.3524780273439	94.49318695068361	-708.3568725585939	-441.5935668945314	98.54014587402347	-791.8923950195315	-525.4562988281251	49.4689407348633	-759.9459228515626	-314.5317687988282	61.74859619140626	-753.7077636718751	-311.0441589355469	60.88747787475587	-715.2104492187501	-352.1908874511719	40.53818893432618	-666.9052124023439	
2	0.005	-71.35684967041017	1474.8994140625	-877.439880371094	-193.3589019775391	1452.1552734375	-975.0549926757815	-262.8292541503907	1444.5458984375	-824.5130004882815	-313.2474670410157	1320.994262695313	-900.090515136719	-490.2431640625001	1076.627197265625	-894.1464843750002	-216.1845092773438	1213.2861328125	-896.304870605469	-228.7624816894532	1264.001098632813	-1075.638793945313	-377.4455871582032	1152.006958007813	-1222.928344726563	-372.2966003417969	1103.634521484375	-1212.956176757813	-419.2523803710939	1105.077392578125	-1252.34765625	-451.1324157714845	1056.049682617188	-1264.7568359375	-511.0964660644532	1088.512451171875	-1216.064819335938	-544.5524902343751	836.8594970703127	-1113.640502929688	-507.4685668945314	806.4155883789065	-1164.344116210938	-488.9613037109376	836.325622558594	-1079.586059570313	-248.7233123779297	1259.834716796875	-707.8737182617189	-381.8689575195313	1139.442260742188	-564.8328857421876	-373.4407043457032	1089.710693359375	-574.0339965820314	-416.7839660644532	1086.096557617188	-534.2893066406251	-442.7609863281251	1030.502807617188	-521.5929565429689	-514.2550048828126	1056.814208984375	-563.9463500976564	-539.5945434570314	806.982116699219	-664.9202880859376	-493.6084594726564	780.1596679687502	-613.4631347656251	-475.554168701172	812.7627563476565	-704.5659790039064	-438.4055786132814	829.3012695312502	-1007.410705566406	-436.5689392089845	811.8630981445315	-789.3543701171877	-566.9650878906251	933.1405029296877	-885.6745605468752	-590.2785034179689	908.8706054687502	-912.1672363281252	-585.3338012695314	908.7515258789065	-855.7957153320315	-471.2652893066407	669.3724975585939	-1122.09912109375	-395.212860107422	636.1404418945314	-1144.908569335938	-360.4812927246094	665.4925537109376	-1136.973754882813	-380.5744323730469	576.5742797851564	-1146.855834960938	-275.5685424804688	466.8218688964845	-1158.874267578125	-258.7083740234376	455.1832580566407	-1044.434692382813	-295.4644165039063	295.3399963378907	-1085.999267578125	-342.2372131347657	261.7734680175782	-1155.637939453125	-313.4938659667969	249.8448791503907	-1120.517700195313	-357.5585937500001	184.0793914794922	-1087.762939453125	-450.2720947265626	93.03255462646486	-1133.80419921875	-427.2126464843751	99.75736999511722	-1048.55810546875	-512.9384155273439	47.84853744506837	-1083.638793945313	-296.3316345214844	60.64953613281251	-1076.330322265625	-300.4226684570313	63.82102966308595	-1122.235595703125	-334.8833312988282	38.80209732055665	-1167.83984375	-430.0645446777345	613.6647949218751	-683.6579589843751	-363.1292114257813	603.9943237304689	-673.2178344726564	-340.4035034179688	626.4832153320314	-679.0518798828126	-325.5274963378907	527.6749877929689	-682.8681640625001	-271.8182983398438	446.0335083007814	-685.6616821289064	-269.2973022460938	440.9956665039064	-803.142517089844	-266.3379821777344	314.0181274414063	-717.5359497070314	-362.2107543945313	279.1938476562501	-673.2174072265626	-327.2634277343751	256.0594177246094	-691.5700683593751	-341.1705017089844	207.0940551757813	-720.4752807617189	-469.2720336914064	94.48145294189455	-708.3245239257814	-441.4216308593751	98.5085372924805	-791.9299926757815	-525.4628295898439	49.4498863220215	-759.9553222656251	-314.5235290527344	61.73027420043947	-753.6792602539064	-311.0365600585938	60.86686325073244	-715.2252197265626	-352.1745605468751	40.54526901245118	-666.9061279296876	
3	0.01	-70.27973937988283	1470.514038085938	-877.5747680664065	-192.2212066650391	1447.933959960938	-975.1140136718752	-261.5583801269532	1440.145385742188	-824.490905761719	-311.9826965332032	1317.023193359375	-900.0791015625002	-489.9511718750001	1073.188232421875	-894.1046142578127	-215.2563934326172	1208.927001953125	-896.2084960937502	-227.7745666503907	1259.858764648438	-1075.638061523438	-376.7455749511719	1148.377807617188	-1223.140869140625	-371.9285888671876	1099.937744140625	-1213.127807617188	-418.8873596191407	1101.684814453125	-1252.630493164063	-450.946502685547	1052.795043945313	-1264.951538085938	-511.2559509277345	1086.412475585938	-1216.70361328125	-545.4097290039064	834.1950683593752	-1113.682983398438	-508.3423767089845	803.621276855469	-1164.132446289063	-489.6203613281251	833.667907714844	-1079.544067382813	-247.7537536621094	1255.806884765625	-707.9253540039064	-380.7592468261719	1135.979858398438	-564.5347900390626	-372.5758666992188	1086.163330078125	-573.5566406250001	-415.917694091797	1082.804077148438	-533.9154663085939	-442.1906127929689	1027.336547851563	-521.2137451171876	-513.8635864257814	1054.0068359375	-563.4482421875001	-540.0476074218751	804.2695312500002	-664.6061401367189	-494.1397399902345	777.240905761719	-613.1405639648439	-476.301727294922	810.1143798828127	-704.4140014648439	-438.7550659179689	826.0293579101565	-1007.642333984375	-437.2920227050782	808.5313720703127	-789.2755126953127	-567.2229614257814	930.0232543945315	-885.703308105469	-590.7836914062501	905.8693847656252	-912.1533813476565	-585.6595458984376	905.7332763671877	-855.7711181640627	-471.4135131835939	667.2182006835939	-1122.189331054688	-395.1377258300782	634.4362792968751	-1145.036010742188	-360.5419921875001	664.1148681640626	-1136.943115234375	-379.8359375000001	574.8441162109376	-1147.182739257813	-274.6512145996094	465.8902587890626	-1158.859252929688	-257.2998962402344	454.5924682617189	-1044.503662109375	-294.6405944824219	294.8026733398438	-1086.196044921875	-341.4509582519532	261.3138427734376	-1155.741455078125	-312.9336547851563	249.0425109863282	-1120.521606445313	-357.3046264648438	183.9044036865235	-1087.7314453125	-450.2046203613282	92.98281097412111	-1133.775268554688	-427.1238098144532	99.75505828857425	-1048.481811523438	-512.8908691406251	47.83261489868165	-1083.621337890625	-296.5450744628907	61.26916503906251	-1076.171264648438	-300.4169311523438	63.84149551391603	-1122.230590820313	-334.8833312988282	38.80209732055665	-1167.83984375	-429.9659729003907	611.5463256835939	-683.4182128906251	-362.7075195312501	602.4902954101564	-673.2577514648439	-340.2304077148438	625.1829833984376	-679.0734252929689	-324.5222473144532	526.0895385742189	-682.8492431640626	-270.5335083007813	445.1756286621095	-685.6159667968751	-268.0154724121094	440.2433166503907	-802.9916992187502	-264.8466491699219	313.0354919433594	-717.6153564453126	-361.6344604492188	278.9488830566407	-673.0659179687501	-326.4499816894532	255.6809387207032	-691.5464477539064	-340.8463439941407	206.7722625732422	-720.4764404296876	-469.1893310546876	94.48638153076173	-708.3010253906251	-441.3532714843751	98.46650695800784	-792.0183105468752	-525.4475708007814	49.46071243286134	-759.9781494140626	-314.4706115722657	61.75943756103517	-753.7252807617189	-311.0460815429688	60.86182403564455	-715.2145385742189	-352.1770324707032	40.54558181762696	-666.9366455078126	
4	0.015	-69.14574432373048	1466.163818359375	-877.6182861328127	-191.2332916259766	1443.634765625	-975.1297607421877	-260.3933715820313	1435.956787109375	-824.4635009765627	-310.7941284179688	1313.150024414063	-900.0941162109377	-489.6800842285157	1069.910034179688	-894.0410156250002	-214.7943420410157	1204.61767578125	-896.3961181640627	-226.8813781738282	1255.662353515625	-1075.630737304688	-376.1332702636719	1144.773193359375	-1223.398559570313	-372.7949829101563	1096.056396484375	-1212.239868164063	-418.3608703613282	1098.33642578125	-1252.812744140625	-450.8371887207032	1049.570434570313	-1265.1318359375	-510.6774291992189	1082.593383789063	-1216.653930664063	-546.0158081054689	831.4959716796877	-1113.79345703125	-509.0895385742189	800.9951171875002	-1164.127319335938	-490.521697998047	831.015563964844	-1079.422607421875	-246.7058715820313	1251.644165039063	-707.9609985351564	-380.0121765136719	1132.493530273438	-564.2698364257814	-371.9525756835938	1082.8466796875	-573.2003173828126	-415.2220458984376	1079.59521484375	-533.5290527343751	-441.6621398925782	1024.260131835938	-520.7731933593751	-513.3669433593751	1051.149291992188	-562.7367553710939	-540.4826660156251	801.5686645507815	-664.3345947265626	-494.5745239257814	774.6051025390627	-613.0474243164064	-476.7934875488282	807.4082641601565	-704.3477783203126	-439.3477783203126	822.8024902343752	-1007.824584960938	-437.8096618652345	805.1846923828127	-789.1521606445315	-567.4347534179689	926.8945312500002	-885.6997680664065	-591.1704101562501	902.9417724609377	-912.1794433593752	-585.8872680664064	902.758728027344	-855.685241699219	-471.3885803222657	665.0770263671876	-1122.349609375	-394.8736572265626	632.7485961914064	-1145.081665039063	-360.4920654296876	662.7277221679689	-1136.8623046875	-379.3264465332032	573.6198730468751	-1147.393432617188	-273.8050842285157	465.9379272460939	-1159.079833984375	-256.4444885253907	453.6633911132814	-1044.738525390625	-293.6588134765626	294.3240661621094	-1086.284790039063	-340.7877807617188	260.8631896972657	-1155.85009765625	-312.7549743652344	249.1080780029297	-1120.55419921875	-356.8883056640626	183.5943298339844	-1087.722412109375	-450.163543701172	92.9375457763672	-1133.719360351563	-426.9058837890626	99.70114898681643	-1048.49462890625	-513.2850341796876	48.72634506225587	-1084.025268554688	-296.2498779296876	60.65608978271486	-1076.344848632813	-300.6899719238282	62.74174118041994	-1122.7060546875	-334.8172607421876	38.86169433593751	-1167.828979492188	-429.6628417968751	609.4170532226564	-683.3941650390626	-362.4110717773438	601.1015625000001	-673.6702270507814	-339.9687500000001	623.5260620117189	-679.0200195312501	-323.9205627441407	525.0477294921876	-682.4547119140626	-269.2189025878907	444.4614868164064	-685.5971069335939	-266.7786254882813	439.396453857422	-802.8389892578127	-264.2204284667969	312.9108581542969	-717.0019531250001	-360.9424438476563	278.5889587402344	-673.0133666992189	-325.8484497070313	255.0828857421876	-691.4845581054689	-340.2659301757813	206.1160736083985	-720.4827270507814	-469.0628967285157	94.40374755859376	-708.2536010742189	-441.2630310058595	98.44367980957034	-792.0535888671877	-525.4493408203126	49.46244049072267	-760.0092773437501	-314.3220520019532	61.74200439453126	-753.7246704101564	-311.0411071777344	60.84132766723634	-715.2603759765626	-352.2144165039063	40.5681381225586	-666.9882202148439	
